<?xml version="1.0" encoding="UTF-8"?>
<!DOCTYPE svg PUBLIC "-//W3C//DTD SVG 1.1//EN" "http://www.w3.org/Graphics/SVG/1.1/DTD/svg11.dtd">
<svg xmlns="http://www.w3.org/2000/svg" version="1.1" width="96px" height="96px" style="shape-rendering:geometricPrecision; text-rendering:geometricPrecision; image-rendering:optimizeQuality; fill-rule:evenodd; clip-rule:evenodd" xmlns:xlink="http://www.w3.org/1999/xlink">
<g><path style="opacity:0.967" fill="#030204" d="M 37.5,-0.5 C 44.1667,-0.5 50.8333,-0.5 57.5,-0.5C 70.9535,3.23227 81.6201,10.8989 89.5,22.5C 90.9825,26.2938 92.6491,29.9605 94.5,33.5C 94.2322,35.099 94.5655,36.4324 95.5,37.5C 95.5,44.1667 95.5,50.8333 95.5,57.5C 94.5655,58.5676 94.2322,59.901 94.5,61.5C 92.6491,65.0395 90.9825,68.7062 89.5,72.5C 88.6618,72.8417 88.3284,73.5084 88.5,74.5C 87.8333,74.5 87.5,74.8333 87.5,75.5C 86.6618,75.8417 86.3284,76.5084 86.5,77.5C 85.8333,77.5 85.5,77.8333 85.5,78.5C 84.8333,78.5 84.5,78.8333 84.5,79.5C 83.8333,79.5 83.5,79.8333 83.5,80.5C 82.8333,80.5 82.5,80.8333 82.5,81.5C 81.8333,81.5 81.5,81.8333 81.5,82.5C 80.8333,82.5 80.5,82.8333 80.5,83.5C 79.8333,83.5 79.5,83.8333 79.5,84.5C 78.8333,84.5 78.5,84.8333 78.5,85.5C 77.8333,85.5 77.5,85.8333 77.5,86.5C 76.5084,86.3284 75.8417,86.6618 75.5,87.5C 74.8333,87.5 74.5,87.8333 74.5,88.5C 73.5084,88.3284 72.8417,88.6618 72.5,89.5C 68.7062,90.9825 65.0395,92.6491 61.5,94.5C 59.901,94.2322 58.5676,94.5655 57.5,95.5C 50.8333,95.5 44.1667,95.5 37.5,95.5C 36.4324,94.5655 35.099,94.2322 33.5,94.5C 29.9605,92.6491 26.2938,90.9825 22.5,89.5C 10.8989,81.6201 3.23227,70.9535 -0.5,57.5C -0.5,50.8333 -0.5,44.1667 -0.5,37.5C 5.16667,17.8333 17.8333,5.16667 37.5,-0.5 Z"/></g>
<g><path style="opacity:0.016" fill="#000000" d="M 22.5,3.5 C 23.8333,4.16667 23.8333,4.16667 22.5,3.5 Z"/></g>
<g><path style="opacity:0.016" fill="#000000" d="M 71.5,3.5 C 72.8333,4.16667 72.8333,4.16667 71.5,3.5 Z"/></g>
<g><path style="opacity:1" fill="#b58bd1" d="M 53.5,11.5 C 45.16,11.3336 36.8267,11.5003 28.5,12C 27.5291,13.4813 26.1958,14.3146 24.5,14.5C 25.2899,13.2058 26.2899,12.0391 27.5,11C 36.3433,10.1764 45.0099,10.3431 53.5,11.5 Z"/></g>
<g><path style="opacity:1" fill="#d59bfd" d="M 53.5,11.5 C 53.8333,11.5 54.1667,11.5 54.5,11.5C 55.2653,14.0961 55.5987,16.7628 55.5,19.5C 58.3297,19.6941 60.9963,20.3608 63.5,21.5C 63.5,22.5 63.5,23.5 63.5,24.5C 51.4815,24.8323 39.4815,24.499 27.5,23.5C 25.302,20.9059 24.302,17.9059 24.5,14.5C 26.1958,14.3146 27.5291,13.4813 28.5,12C 36.8267,11.5003 45.16,11.3336 53.5,11.5 Z"/></g>
<g><path style="opacity:1" fill="#0e0420" d="M 57.5,13.5 C 60.3537,15.5094 63.3537,17.3428 66.5,19C 67.3366,20.0113 67.67,21.1779 67.5,22.5C 71.6836,22.8509 75.6836,23.5176 79.5,24.5C 75.4862,24.6655 71.4862,24.4988 67.5,24C 66.6266,22.955 65.6266,22.1217 64.5,21.5C 62.1667,18.8333 59.8333,16.1667 57.5,13.5 Z"/></g>
<g><path style="opacity:0.012" fill="#000100" d="M 90.5,22.5 C 90.1667,22.5 89.8333,22.5 89.5,22.5C 89.8333,19.8333 90.1667,19.8333 90.5,22.5 Z"/></g>
<g><path style="opacity:0.016" fill="#000000" d="M 3.5,22.5 C 4.83333,23.1667 4.83333,23.1667 3.5,22.5 Z"/></g>
<g><path style="opacity:0.016" fill="#000100" d="M 90.5,22.5 C 91.8333,23.1667 91.8333,23.1667 90.5,22.5 Z"/></g>
<g><path style="opacity:1" fill="#ce9ff3" d="M 54.5,11.5 C 55.5,12.1667 56.5,12.8333 57.5,13.5C 59.8333,16.1667 62.1667,18.8333 64.5,21.5C 64.5394,22.5832 64.8728,23.5832 65.5,24.5C 53.1847,25.499 40.8513,25.8324 28.5,25.5C 27.391,25.4431 26.391,25.1098 25.5,24.5C 23.3472,21.2885 23.0138,17.9552 24.5,14.5C 24.302,17.9059 25.302,20.9059 27.5,23.5C 39.4815,24.499 51.4815,24.8323 63.5,24.5C 63.5,23.5 63.5,22.5 63.5,21.5C 60.9963,20.3608 58.3297,19.6941 55.5,19.5C 55.5987,16.7628 55.2653,14.0961 54.5,11.5 Z"/></g>
<g><path style="opacity:1" fill="#9f80bb" d="M 64.5,21.5 C 65.6266,22.1217 66.6266,22.955 67.5,24C 71.4862,24.4988 75.4862,24.6655 79.5,24.5C 82.3933,24.0311 84.3933,25.0311 85.5,27.5C 80.4724,25.6022 75.4724,25.2689 70.5,26.5C 56.3234,26.8291 42.3234,26.4958 28.5,25.5C 40.8513,25.8324 53.1847,25.499 65.5,24.5C 64.8728,23.5832 64.5394,22.5832 64.5,21.5 Z"/></g>
<g><path style="opacity:1" fill="#1e142a" d="M 25.5,24.5 C 26.391,25.1098 27.391,25.4431 28.5,25.5C 42.3234,26.4958 56.3234,26.8291 70.5,26.5C 70.5,35.5 70.5,44.5 70.5,53.5C 70.1667,53.5 69.8333,53.5 69.5,53.5C 69.6664,44.8269 69.4998,36.1603 69,27.5C 55.9086,28.6554 42.742,28.822 29.5,28C 27.7536,27.5291 26.087,26.8624 24.5,26C 25.056,25.6174 25.3893,25.1174 25.5,24.5 Z"/></g>
<g><path style="opacity:0.012" fill="#010101" d="M 95.5,30.5 C 95.5,31.5 95.5,32.5 95.5,33.5C 95.1667,33.5 94.8333,33.5 94.5,33.5C 94.2627,32.209 94.596,31.209 95.5,30.5 Z"/></g>
<g><path style="opacity:1" fill="#b08bcd" d="M 63.5,49.5 C 62.0695,49.5792 60.7362,49.2458 59.5,48.5C 57.6292,45.1285 54.9625,42.6285 51.5,41C 43.5069,40.5003 35.5069,40.3336 27.5,40.5C 27.5,41.5 27.5,42.5 27.5,43.5C 26.5,43.5 25.5,43.5 24.5,43.5C 24.5,47.1667 24.5,50.8333 24.5,54.5C 24.5,55.5 24.5,56.5 24.5,57.5C 24.5,64.8333 24.5,72.1667 24.5,79.5C 23.7784,79.0825 23.2784,78.4158 23,77.5C 22.3333,66.5 22.3333,55.5 23,44.5C 23.7845,42.714 24.9512,41.214 26.5,40C 35.1667,39.3333 43.8333,39.3333 52.5,40C 56.9494,42.2843 60.616,45.4509 63.5,49.5 Z"/></g>
<g><path style="opacity:1" fill="#d39cfc" d="M 85.5,27.5 C 85.6664,36.1731 85.4998,44.8397 85,53.5C 84.6174,54.056 84.1174,54.3893 83.5,54.5C 78.9677,54.8182 74.6344,54.4849 70.5,53.5C 70.5,44.5 70.5,35.5 70.5,26.5C 75.4724,25.2689 80.4724,25.6022 85.5,27.5 Z"/></g>
<g><path style="opacity:1" fill="#d49cfd" d="M 63.5,49.5 C 65.1667,50.5 66.5,51.8333 67.5,53.5C 53.3431,54.4959 39.0097,54.8293 24.5,54.5C 24.5,50.8333 24.5,47.1667 24.5,43.5C 25.5,43.5 26.5,43.5 27.5,43.5C 27.5,42.5 27.5,41.5 27.5,40.5C 35.5069,40.3336 43.5069,40.5003 51.5,41C 54.9625,42.6285 57.6292,45.1285 59.5,48.5C 60.7362,49.2458 62.0695,49.5792 63.5,49.5 Z"/></g>
<g><path style="opacity:1" fill="#9d75b6" d="M 67.5,53.5 C 68.1667,53.5 68.8333,53.5 69.5,53.5C 69.8333,53.5 70.1667,53.5 70.5,53.5C 74.6344,54.4849 78.9677,54.8182 83.5,54.5C 63.9784,54.8372 44.6451,55.8372 25.5,57.5C 25.1667,57.5 24.8333,57.5 24.5,57.5C 24.5,56.5 24.5,55.5 24.5,54.5C 39.0097,54.8293 53.3431,54.4959 67.5,53.5 Z"/></g>
<g><path style="opacity:0.012" fill="#000100" d="M 94.5,61.5 C 94.8333,61.5 95.1667,61.5 95.5,61.5C 95.5,62.5 95.5,63.5 95.5,64.5C 94.596,63.791 94.2627,62.791 94.5,61.5 Z"/></g>
<g><path style="opacity:0.016" fill="#000000" d="M 3.5,71.5 C 4.83333,72.1667 4.83333,72.1667 3.5,71.5 Z"/></g>
<g><path style="opacity:1" fill="#d09bf8" d="M 24.5,57.5 C 24.8333,57.5 25.1667,57.5 25.5,57.5C 29.0656,62.5734 33.2323,67.2401 38,71.5C 39.6644,80.1662 36.1644,83.9996 27.5,83C 26.2899,81.9609 25.2899,80.7942 24.5,79.5C 24.5,72.1667 24.5,64.8333 24.5,57.5 Z"/></g>
<g><path style="opacity:0.016" fill="#000000" d="M 90.5,71.5 C 91.8333,72.1667 91.8333,72.1667 90.5,71.5 Z"/></g>
<g><path style="opacity:0.012" fill="#000000" d="M 89.5,72.5 C 89.8333,72.5 90.1667,72.5 90.5,72.5C 90.6716,73.4916 90.3382,74.1583 89.5,74.5C 89.5,73.8333 89.5,73.1667 89.5,72.5 Z"/></g>
<g><path style="opacity:0.02" fill="#000000" d="M 88.5,74.5 C 88.8333,74.5 89.1667,74.5 89.5,74.5C 89.3147,75.1701 88.9813,75.1701 88.5,74.5 Z"/></g>
<g><path style="opacity:0.01" fill="#000000" d="M 87.5,75.5 C 87.8333,75.5 88.1667,75.5 88.5,75.5C 88.6716,76.4916 88.3382,77.1583 87.5,77.5C 87.5,76.8333 87.5,76.1667 87.5,75.5 Z"/></g>
<g><path style="opacity:0.012" fill="#000000" d="M 86.5,77.5 C 86.8333,77.5 87.1667,77.5 87.5,77.5C 87.3147,78.1701 86.9813,78.1701 86.5,77.5 Z"/></g>
<g><path style="opacity:0.02" fill="#000000" d="M 85.5,78.5 C 85.8333,78.5 86.1667,78.5 86.5,78.5C 86.3147,79.1701 85.9813,79.1701 85.5,78.5 Z"/></g>
<g><path style="opacity:0.02" fill="#000000" d="M 84.5,79.5 C 84.8333,79.5 85.1667,79.5 85.5,79.5C 85.3147,80.1701 84.9813,80.1701 84.5,79.5 Z"/></g>
<g><path style="opacity:0.02" fill="#000000" d="M 83.5,80.5 C 83.8333,80.5 84.1667,80.5 84.5,80.5C 84.3147,81.1701 83.9813,81.1701 83.5,80.5 Z"/></g>
<g><path style="opacity:0.02" fill="#000000" d="M 82.5,81.5 C 82.8333,81.5 83.1667,81.5 83.5,81.5C 83.3147,82.1701 82.9813,82.1701 82.5,81.5 Z"/></g>
<g><path style="opacity:0.02" fill="#000000" d="M 81.5,82.5 C 81.8333,82.5 82.1667,82.5 82.5,82.5C 82.3147,83.1701 81.9813,83.1701 81.5,82.5 Z"/></g>
<g><path style="opacity:0.02" fill="#000000" d="M 80.5,83.5 C 80.8333,83.5 81.1667,83.5 81.5,83.5C 81.3147,84.1701 80.9813,84.1701 80.5,83.5 Z"/></g>
<g><path style="opacity:0.02" fill="#000000" d="M 79.5,84.5 C 79.8333,84.5 80.1667,84.5 80.5,84.5C 80.3147,85.1701 79.9813,85.1701 79.5,84.5 Z"/></g>
<g><path style="opacity:0.02" fill="#000000" d="M 78.5,85.5 C 78.8333,85.5 79.1667,85.5 79.5,85.5C 79.3147,86.1701 78.9813,86.1701 78.5,85.5 Z"/></g>
<g><path style="opacity:0.012" fill="#000000" d="M 77.5,86.5 C 77.8333,86.5 78.1667,86.5 78.5,86.5C 78.3147,87.1701 77.9813,87.1701 77.5,86.5 Z"/></g>
<g><path style="opacity:0.01" fill="#000000" d="M 75.5,88.5 C 75.5,88.1667 75.5,87.8333 75.5,87.5C 76.1667,87.5 76.8333,87.5 77.5,87.5C 77.1583,88.3382 76.4916,88.6716 75.5,88.5 Z"/></g>
<g><path style="opacity:0.02" fill="#000000" d="M 74.5,88.5 C 74.8333,88.5 75.1667,88.5 75.5,88.5C 75.3147,89.1701 74.9813,89.1701 74.5,88.5 Z"/></g>
<g><path style="opacity:0.012" fill="#000100" d="M 22.5,89.5 C 22.5,89.8333 22.5,90.1667 22.5,90.5C 19.8333,90.1667 19.8333,89.8333 22.5,89.5 Z"/></g>
<g><path style="opacity:0.012" fill="#000000" d="M 72.5,90.5 C 72.5,90.1667 72.5,89.8333 72.5,89.5C 73.1667,89.5 73.8333,89.5 74.5,89.5C 74.1583,90.3382 73.4916,90.6716 72.5,90.5 Z"/></g>
<g><path style="opacity:0.016" fill="#000100" d="M 22.5,90.5 C 23.8333,91.1667 23.8333,91.1667 22.5,90.5 Z"/></g>
<g><path style="opacity:0.016" fill="#000000" d="M 72.5,90.5 C 71.8333,91.1667 71.8333,91.1667 72.5,90.5 Z"/></g>
<g><path style="opacity:0.012" fill="#020000" d="M 30.5,95.5 C 31.209,94.596 32.209,94.2627 33.5,94.5C 33.5,94.8333 33.5,95.1667 33.5,95.5C 32.5,95.5 31.5,95.5 30.5,95.5 Z"/></g>
<g><path style="opacity:0.012" fill="#000000" d="M 61.5,95.5 C 61.5,95.1667 61.5,94.8333 61.5,94.5C 62.791,94.2627 63.791,94.596 64.5,95.5C 63.5,95.5 62.5,95.5 61.5,95.5 Z"/></g>
</svg>
