<svg fill="none" height="28" viewBox="0 0 28 28" width="28" xmlns="http://www.w3.org/2000/svg" xmlns:xlink="http://www.w3.org/1999/xlink"><clipPath id="a"><path d="m0 0h28v28h-28z"/></clipPath><g clip-path="url(#a)"><path d="m14 28c7.732 0 14-6.268 14-14 0-7.73199-6.268-14-14-14-7.73199 0-14 6.26801-14 14 0 7.732 6.26801 14 14 14z" fill="#e1eef2"/><path d="m16.1986 13.7757 6.2881-7.9422h-3.7148c-.7693.00855-1.4318.36761-1.9918 1.08147l-3.1205 3.96253-3.1205-3.96253c-.5685-.7224-1.23535-1.08147-1.99196-1.08147h-2.45364c-.41891 0-.62836.17525-.62836.52578 0 .17525.08122.35906.23937.55996l5.41169 6.85646-3.38978 4.3259-2.35105 2.9966c-.15816.2052-.23938.389-.23938.5556.04702.342.25648.513.63691.513h2.42799c.76089 0 1.41918-.3548 1.98341-1.0686l3.4753-4.4329 3.471 4.4329c.56.7138 1.2225 1.0686 1.9834 1.0686h3.6805z" fill="#15294c"/><path d="m17.3586 13.7886 3.2616 4.1421v-8.28422z" fill="#9aca3d"/></g></svg>